<svg xmlns="http://www.w3.org/2000/svg" viewBox="0 0 64 64" width="256" height="256"><path fill="#2B2F2B" fill-rule="evenodd" d="M32 5.5 C 46 5.5 56.5 15.5 56.5 29 C 56.5 36 53 41 47.5 43.5 C 53 46 56.5 51.5 56.5 56.5 L56.5 57 C 56 60 54 61.5 50 61.5 C 49 61.5 41 61.5 32 61.5 C 17.5 61.5 7.5 50 7.5 33.5 C 7.5 17.5 18 5.5 32 5.5 Z M18 26 C 27 20 42 20.5 47 26.5 C 39.5 26.8 31 27.8 24 29 C 21 29.5 18.5 28.4 18 26 Z M20 41.5 C 29 35.5 44 36 49 42 C 41.5 42.3 33 43.3 26 44.5 C 23 45 20.5 43.9 20 41.5 Z"></path></svg>